<svg xmlns="http://www.w3.org/2000/svg" width="1024" height="1024" viewBox="0 0 1024 1024">
  <defs>
    <linearGradient id="bg" x1="120" y1="80" x2="920" y2="944" gradientUnits="userSpaceOnUse">
      <stop offset="0" stop-color="#0B1220"/>
      <stop offset="0.55" stop-color="#12243A"/>
      <stop offset="1" stop-color="#1B3554"/>
    </linearGradient>
    <linearGradient id="stack" x1="120" y1="260" x2="836" y2="700" gradientUnits="userSpaceOnUse">
      <stop offset="0" stop-color="#8EF9FF"/>
      <stop offset="0.55" stop-color="#4DD9D5"/>
      <stop offset="1" stop-color="#2FA9C8"/>
    </linearGradient>
    <linearGradient id="stackShade" x1="300" y1="260" x2="760" y2="760" gradientUnits="userSpaceOnUse">
      <stop offset="0" stop-color="#C8FEFF" stop-opacity="0.9"/>
      <stop offset="1" stop-color="#0D5066" stop-opacity="0.15"/>
    </linearGradient>
    <linearGradient id="riot" x1="324" y1="760" x2="720" y2="264" gradientUnits="userSpaceOnUse">
      <stop offset="0" stop-color="#FDE047"/>
      <stop offset="0.35" stop-color="#FB923C"/>
      <stop offset="1" stop-color="#EF4444"/>
    </linearGradient>
    <filter id="shadow" x="-20%" y="-20%" width="140%" height="140%">
      <feDropShadow dx="0" dy="24" stdDeviation="28" flood-color="#020617" flood-opacity="0.32"/>
    </filter>
    <filter id="slashShadow" x="-20%" y="-20%" width="140%" height="140%">
      <feDropShadow dx="0" dy="14" stdDeviation="18" flood-color="#7C2D12" flood-opacity="0.35"/>
    </filter>
  </defs>

  <rect x="64" y="64" width="896" height="896" rx="220" fill="url(#bg)"/>
  <rect x="88" y="88" width="848" height="848" rx="196" fill="none" stroke="rgba(255,255,255,0.08)"/>

  <g filter="url(#shadow)">
    <g transform="translate(0 0)">
      <rect x="176" y="244" width="652" height="120" rx="48" fill="url(#stack)"/>
      <rect x="176" y="244" width="652" height="120" rx="48" fill="url(#stackShade)" opacity="0.34"/>
      <circle cx="232" cy="304" r="18" fill="#E6FEFF" opacity="0.9"/>
      <circle cx="772" cy="304" r="18" fill="#E6FEFF" opacity="0.9"/>
    </g>

    <g transform="translate(-42 156)">
      <rect x="176" y="244" width="652" height="120" rx="48" fill="url(#stack)"/>
      <rect x="176" y="244" width="652" height="120" rx="48" fill="url(#stackShade)" opacity="0.34"/>
      <circle cx="232" cy="304" r="18" fill="#E6FEFF" opacity="0.9"/>
      <circle cx="772" cy="304" r="18" fill="#E6FEFF" opacity="0.9"/>
    </g>

    <g transform="translate(-84 312)">
      <rect x="176" y="244" width="652" height="120" rx="48" fill="url(#stack)"/>
      <rect x="176" y="244" width="652" height="120" rx="48" fill="url(#stackShade)" opacity="0.34"/>
      <circle cx="232" cy="304" r="18" fill="#E6FEFF" opacity="0.9"/>
      <circle cx="772" cy="304" r="18" fill="#E6FEFF" opacity="0.9"/>
    </g>
  </g>

  <g opacity="0.18">
    <path d="M244 300 L352 456" stroke="#E0F2FE" stroke-width="22" stroke-linecap="round"/>
    <path d="M730 300 L688 456" stroke="#E0F2FE" stroke-width="22" stroke-linecap="round"/>
    <path d="M202 456 L310 612" stroke="#E0F2FE" stroke-width="22" stroke-linecap="round"/>
    <path d="M688 456 L646 612" stroke="#E0F2FE" stroke-width="22" stroke-linecap="round"/>
  </g>

  <path
    d="M646 212
       C616 260 586 308 556 356
       L640 356
       C663 356 678 381 665 400
       L456 714
       C444 732 419 733 406 716
       C404 713 402 710 401 706
       L466 498
       L376 498
       C352 498 337 471 351 451
       L596 186
       C611 169 637 174 646 194
       C649 201 649 207 646 212 Z"
    fill="url(#riot)"
    filter="url(#slashShadow)"
  />

  <circle cx="706" cy="226" r="22" fill="#FDE68A" opacity="0.95"/>
  <circle cx="760" cy="186" r="10" fill="#FB7185" opacity="0.95"/>
  <circle cx="736" cy="154" r="8" fill="#F8FAFC" opacity="0.95"/>
</svg>
